<!--?xml version="1.0" encoding="utf-8"?-->
<!-- Generator: Adobe Illustrator 18.1.1, SVG Export Plug-In . SVG Version: 6.00 Build 0)  -->

<svg version="1.1" id="_x31_0" xmlns="http://www.w3.org/2000/svg" xmlns:xlink="http://www.w3.org/1999/xlink" x="0px" y="0px" viewBox="0 0 512 512" style="width: 256px; height: 256px; opacity: 1;" xml:space="preserve">
<style type="text/css">
	.st0{fill:#374149;}
</style>
<g>
	<path class="st0" d="M428.336,60.129c0.695,0.378,1.343,0.801,2.015,1.203c2.203,1.359,4.402,2.828,6.59,4.558
		c-15.36,1.191-27.539,14.098-27.539,29.754c0,16.477,13.442,29.922,29.922,29.922c16.543,0,29.922-13.446,29.922-29.922
		c0-11.238-6.207-21.027-15.375-26.129h-0.07C430.84,39.867,379.683-1.016,287.438,0.019
		c-97.762,1.031-157.539,71.906-171.879,106.93c-0.066,0-0.066,0-0.066,0c0,0.07,0,0.07,0,0.07
		c-6.551,10.203-9.93,21.305-9.93,32.68v40.61c-9.102,3.101-16.547,9.582-20.614,18.339c-6.414,13.649-3.378,30.126,8.133,43.914
		c2.965,3.515,6.278,6.344,9.653,8.55c-2.203,3.653-4.34,7.516-6.274,11.516c-8.066,17.027-11.168,34.953-9.512,54.738
		c1.226,15.293,7.398,30.57,17.45,44.637c2.706,3.851,5.683,7.644,8.976,11.355c-0.031-0.027-0.058-0.05-0.09-0.074
		c-2.344,1.516-4.621,3.031-6.828,4.688c-2.203,1.586-4.344,3.238-6.481,4.961c-1.71,1.406-3.238,2.953-4.882,4.41
		c-0.817,0.718-1.629,1.453-2.418,2.179c-1.546,1.426-3.21,2.75-4.695,4.234c-27.922,27.926-45.226,66.325-45.226,108.66
		c0,5.309,4.344,9.582,9.652,9.582h397.809c2.622,0,5.035-1.035,6.758-2.828c1.793-1.722,2.828-4.137,2.828-6.754
		c0-49.988-24.203-94.66-61.43-122.793c-2.207-1.652-4.414-3.238-6.688-4.758c-1.961-1.344-3.945-2.602-5.996-3.793
		c-0.258-0.168-0.488-0.325-0.75-0.496c14.058-16.336,22.672-34.738,24.187-53.211c1.722-19.786-1.449-37.711-9.515-54.738
		c-0.719-1.504-1.622-2.832-2.387-4.293c-1.484-2.832-3.039-5.645-4.695-8.434c-0.254-0.406-0.453-0.871-0.707-1.27
		c2.137-1.726,4.274-3.722,6.203-6.07c11.516-13.789,14.618-30.266,8.207-43.914c-4.207-8.894-11.789-15.445-21.098-18.48v-40.469
		c0-5.996-0.965-11.926-2.758-17.649v-0.207h-0.07c-2-6.066-4.965-11.93-8.961-17.515c-1.035-20.817,2.343-42.95,19.648-48.535
		c8.562-2.762,16.653-2.398,23.985-0.352c0.351,0.098,0.699,0.199,1.046,0.305c1.902,0.578,3.746,1.27,5.535,2.047
		C425.152,58.5,426.746,59.226,428.336,60.129z M364.816,171.09l-1.746-1.813c-0.414-0.347-0.828-0.762-1.242-1.101l-1.309-1.242
		c-1.378-1.242-2.758-2.414-4.207-3.657l-0.828-0.824l-0.55-0.21c-1.446-1.168-2.965-2.274-4.481-3.375
		c-0.414-0.278-0.828-0.555-1.106-0.762c-1.582-1.102-3.238-2.133-4.894-3.168l-1.031-0.692c-4.07-2.414-8.344-4.758-12.55-6.754
		c-0.274-0.141-0.551-0.278-1.031-0.484c-2.07-0.966-4.207-1.93-6.414-2.829c-0.207-0.07-0.414-0.137-0.55-0.206
		c-0.137-0.066-0.344-0.137-0.551-0.207h-0.07v-0.066c-1.445-0.551-2.758-1.106-4.274-1.657c-3.308-1.242-6.758-2.414-10.273-3.515
		c-0.207-0.066-0.414-0.137-0.688-0.137c-8-2.484-16.274-4.344-24.754-5.793l-0.274-0.07c-1.242-0.207-2.484-0.41-3.793-0.551
		c-4.618-0.687-9.375-1.242-14.066-1.656h-0.41c-2.828-0.274-5.722-0.41-8.621-0.546h-0.622c-2.312-0.11-4.679,0.023-7.046,0
		c-0.699-0.008-1.383-0.047-2.086-0.047c-1.39,0-2.789,0.015-4.238,0.047c-1.636,0.031-3.289-0.074-4.898,0h-0.621
		c-2.894,0.136-5.789,0.273-8.617,0.546h-0.414c-4.687,0.414-9.446,0.969-14.062,1.656c-1.313,0.141-2.551,0.344-3.793,0.551
		l-0.414,0.07c-8.41,1.449-16.614,3.309-24.614,5.793c-0.273,0-0.48,0.07-0.758,0.207c-1.859,0.55-3.722,1.172-5.515,1.793h-0.137
		c-1.586,0.551-3.035,1.102-4.551,1.652c-1.656,0.622-3.308,1.242-4.828,1.93c-0.203,0.07-0.414,0.136-0.617,0.206
		c-2.207,0.898-4.344,1.863-6.622,2.898c-0.274,0.137-0.55,0.274-0.621,0.344c-1.782,0.836-3.477,1.89-5.234,2.813
		c-0.789,0.414-1.574,0.836-2.367,1.27c-1.782,0.98-3.621,1.824-5.359,2.882l-0.828,0.551c-1.723,1.035-3.309,2.066-4.758,3.102
		c-0.41,0.273-0.824,0.55-1.102,0.758c-1.656,1.102-3.172,2.278-4.617,3.446l-0.622,0.277l-0.758,0.828
		c-1.449,1.172-2.898,2.344-4.414,3.723l-1.172,1.106c-0.207,0.202-0.485,0.41-0.691,0.687c-0.551,0.554-1.137,1.133-1.711,1.714
		c-0.211,0.168-0.379,0.348-0.633,0.5v-31.863c0-2.41,0.278-4.894,0.828-7.238c0.758-3.378,1.93-6.824,3.656-10.133
		c4.961-9.722,13.993-18.89,26.61-26.75c21.512-13.446,50.676-21.305,82.184-22.203c2.066-0.137,4.206-0.137,6.273-0.137
		c2.137,0,4.274,0,6.41,0.137c31.442,0.898,60.535,8.758,82.114,22.203c12.55,7.859,21.648,17.027,26.613,26.75
		c1.723,3.309,2.898,6.754,3.657,10.133c0.55,2.551,0.824,5.102,0.824,7.723v18.445L364.816,171.09z M268.203,475.183
		c0,9.926-7.586,17.993-16.891,17.993c-9.308,0-16.894-8.066-16.894-17.993c0-9.859,7.586-17.926,16.894-17.926
		C260.617,457.258,268.203,465.324,268.203,475.183z M350.11,375.422c-23.926,17.442-80.184,45.641-102.039,45.641
		c-21.856,0-78.184-28.199-102.106-45.641c-23.926-17.445-37.301-39.851-38.954-59.707c-1.449-17.238,1.586-31.164,7.305-43.574
		c2.207,6.484,5.313,12.546,9.172,17.996l0.07,0.07c10.34,20.058,34.61,34.125,62.668,34.125c5.449,0,10.758-0.481,15.789-1.516
		c2,2.274,4.344,4.274,7.031,6.203c4.828,3.379,10.41,6,16.547,7.863c6.274,1.93,12.894,2.895,19.718,2.895
		c6.895,0,13.512-0.965,19.786-2.895c6.137-1.863,11.722-4.484,16.546-7.863c0.922-0.675,1.618-1.473,2.465-2.172
		c1-0.82,1.954-1.664,2.829-2.496c0.546-0.531,1.23-0.972,1.742-1.535c5.031,1.035,10.34,1.516,15.79,1.516
		c26.886,0,50.328-12.961,61.289-31.645c0.07-0.07,0.07-0.07,0.07-0.141c4.91-6.374,8.68-13.57,11.199-21.363
		c0.582-1.687,1.156-3.374,1.625-5.109c1,1.742,1.883,3.426,2.688,5.242c6,12.614,9.171,26.746,7.722,44.398
		C387.406,335.57,374.031,357.977,350.11,375.422z M241.59,264.074c-6.203,0-11.238-3.997-11.238-8.895
		c0-5.031,5.035-9.031,11.238-9.031c6.137,0,11.238,4,11.238,9.031C252.828,260.078,247.726,264.074,241.59,264.074z
		 M254.039,284.75c3.773-0.762,7.281-1.996,10.37-3.714h0.07c3.516-1.793,6.618-4.137,9.102-6.894
		c7.168,2.828,15.234,4.343,23.715,4.343c11.309,0,23.371-2.621,35.023-8.203c4.965-2.414,9.653-5.171,13.859-8.343
		c1.516-1.102,3.168-1.586,4.825-1.586c2.898,0,5.656,1.586,7.031,4.137c0.621,1.106,0.969,2.414,0.969,3.793v0.207
		c0,19.578-16.961,35.989-40.129,40.883c-4.618,1.035-9.446,1.519-14.406,1.519c-3.793,0-7.379-0.278-10.965-0.898
		c-3.379-0.48-6.754-1.309-9.86-2.278c-11.718-3.722-21.37-10.546-27.301-19.094c-0.762-1.144-1.503-2.305-2.156-3.554
		C254.141,284.953,254.082,284.863,254.039,284.75z M273.434,318.313c-3.5,2.453-7.606,4.304-12.195,5.675
		c-9.997,3.031-21.786,3.031-31.782,0c-3.707-1.106-6.996-2.629-10.008-4.426c-0.71-0.457-1.515-0.836-2.168-1.344
		c11.746-4.969,21.57-12.664,28.031-22.086c5.61,8.09,13.738,14.793,23.332,19.703C270.23,316.676,271.762,317.562,273.434,318.313z
		 M139.691,260.351c1.652,0,3.309,0.485,4.824,1.586c4.207,3.172,8.894,5.93,13.859,8.343c11.653,5.582,23.715,8.203,35.024,8.203
		c8.48,0,16.546-1.515,23.714-4.343c2.551,2.758,5.723,5.171,9.309,7.031h0.07c2.813,1.473,6.004,2.602,9.359,3.371
		c0.262,0.074,0.496,0.164,0.762,0.234c-0.687,1.441-1.578,2.812-2.469,4.117c-6,8.414-15.511,15.098-27.094,18.82
		c-3.106,0.969-6.414,1.798-9.859,2.278c-3.519,0.621-7.172,0.898-10.965,0.898c-5.582,0-11.031-0.691-16.133-1.863
		c0,0-0.066,0-0.066-0.07c-22.203-5.309-38.336-21.442-38.336-40.469v-0.207c0-1.586,0.414-3.035,1.242-4.273
		C134.382,261.73,137,260.351,139.691,260.351z M366.722,217.539l9.722-15.446l1.794-2.894c1.93,0.55,3.722,1.449,5.238,2.55
		c6.965,5.238,8.894,16.062-0.966,27.922c-0.828,0.965-1.656,1.863-2.621,2.55c-2.758,2.414-5.996,4-8.961,4.965
		c-5.379,1.793-10.066,1.793-10.551,1.793h-0.066v7.118l-0.066,2.926c-2.812-1.359-5.957-2.117-9.242-2.117
		c-4.618,0-9.031,1.449-12.825,4.206c-3.652,2.692-7.582,5.032-11.718,7.032c-9.379,4.484-19.512,6.894-29.164,6.894
		c-6.344,0-12.203-1.031-17.375-2.894c0.348-1.516,0.485-3.102,0.485-4.688c0-3.035-0.551-5.93-1.657-8.617
		c-1.378-3.379-3.445-6.485-6.203-9.102c-3.515-3.586-8.137-6.41-13.374-8.203c-0.07,0-0.07,0-0.07,0
		c-4.207-1.45-8.894-2.278-13.79-2.278c-4.273,0-8.41,0.621-12.203,1.793c-5.515,1.653-10.339,4.344-14.133,7.794
		c-2.894,2.687-5.102,5.652-6.621,9.027c-1.309,2.965-2.066,6.206-2.066,9.586c0,1.586,0.137,3.172,0.481,4.688
		c-5.168,1.863-11.028,2.894-17.371,2.894c-9.653,0-19.79-2.41-29.164-6.894c-4.137-2-8.066-4.34-11.723-7.032
		c-3.789-2.758-8.203-4.206-12.82-4.206c-2.75,0-5.355,0.566-7.762,1.546c-0.375,0.125-0.766,0.195-1.133,0.336v-9.809
		c0,0,0,0-0.07,0c-0.344,0-2.894,0-6.41-0.691c-2.965-0.621-6.55-1.722-9.93-3.722c-2.066-1.309-4.066-2.824-5.789-4.894
		c-9.859-11.86-7.93-22.684-0.969-27.852c1.656-1.312,3.586-2.207,5.793-2.758l1.93,3.102l11.238,17.855l1.652,2.645l1.294,2.32
		v-0.258l0.156,0.258V199.75l1.379-2.48c1.449-2.551,3.242-5.172,5.105-7.516c1.172-1.378,2.41-2.758,3.653-4.07
		c0.894-0.894,1.793-1.859,2.758-2.754l0.828-0.828l0.137-0.07c0.969-0.84,1.938-1.688,2.906-2.582
		c0.086-0.066,0.156-0.129,0.25-0.195l0.5-0.187l0.758-0.758c1.238-1.035,2.617-2,4.137-3.102l0.758-0.485
		c1.309-0.965,2.687-1.859,3.93-2.621c0.414-0.207,0.758-0.481,0.965-0.551c3.446-2.137,7.168-4.137,11.168-5.996
		c0.278-0.141,0.485-0.278,0.551-0.278c1.863-0.894,3.722-1.722,5.656-2.48l0.48-0.207c4.207-1.722,8.688-3.309,13.309-4.758
		l0.481-0.137c7.172-2.137,14.687-3.93,22.062-5.172l0.55-0.07c5.242-0.894,10.481-1.515,15.79-1.93l0.414-0.07
		c2.688-0.203,5.379-0.414,8.066-0.55h0.622c5.515-0.207,11.374-0.207,16.89,0h0.621c2.688,0.137,5.379,0.347,8.066,0.55l0.414,0.07
		c5.309,0.414,10.547,1.035,15.789,1.93l0.414,0.07c7.511,1.242,15.027,3.035,22.406,5.238l0.343,0.137
		c4.551,1.382,8.962,2.898,13.238,4.691l0.481,0.207c1.93,0.758,3.793,1.586,5.445,2.344c0.278,0.136,0.485,0.273,0.969,0.48
		c3.79,1.793,7.516,3.793,10.754,5.793c0.414,0.274,0.828,0.481,1.035,0.551c1.378,0.898,2.758,1.793,4.274,2.828l0.687,0.55
		c1.382,0.966,2.758,1.93,4.07,2.966l0.758,0.758l0.485,0.277c1.031,0.895,2.066,1.723,2.961,2.481l0.277,0.278
		c0.278,0.274,0.551,0.55,0.829,0.828c0.965,0.894,1.859,1.789,2.687,2.687c1.309,1.309,2.55,2.688,3.586,4
		c2,2.481,3.794,5.102,5.238,7.653l2.414,4.41v12.57l-0.133,10.649l0.133-0.215v0.301L366.722,217.539z M439.324,112.121
		c-9.035,0-16.41-7.379-16.41-16.477c0-9.031,7.375-16.41,16.41-16.41c9.098,0,16.477,7.378,16.477,16.41
		C455.801,104.742,448.422,112.121,439.324,112.121z" style="fill: rgb(75, 75, 75);"></path>
	<path class="st0" d="M202.91,202.508c-6.48,0-11.718,5.722-11.718,12.89c0,2.484,0.621,4.828,1.722,6.758
		c2.07,3.722,5.723,6.207,9.996,6.207c2.207,0,4.278-0.691,6.07-1.93c3.446-2.207,5.653-6.348,5.653-11.035
		C214.633,208.23,209.394,202.508,202.91,202.508z M206.43,208.781c1.996,0,3.515,1.723,3.515,3.863c0,2.207-1.519,3.86-3.515,3.86
		c-1.934,0-3.52-1.653-3.52-3.86C202.91,210.504,204.496,208.781,206.43,208.781z" style="fill: rgb(75, 75, 75);"></path>
	<path class="st0" d="M285.164,202.508c-6.481,0-11.722,5.722-11.722,12.89c0,5.726,3.378,10.621,8.066,12.274
		c1.105,0.414,2.343,0.691,3.656,0.691c3.031,0,5.789-1.313,7.859-3.379c2.41-2.343,3.93-5.722,3.93-9.586
		C296.953,208.23,291.644,202.508,285.164,202.508z M288.679,216.504c-1.93,0-3.515-1.653-3.515-3.86
		c0-2.14,1.586-3.863,3.515-3.863c2,0,3.516,1.723,3.516,3.863C292.195,214.851,290.679,216.504,288.679,216.504z" style="fill: rgb(75, 75, 75);"></path>
	<path class="st0" d="M202.27,173.746c-0.586,0-13.77,0.114-23.958,6.122c-0.262,0.152-0.542,0.262-0.801,0.422l0.008,0.008
		c-0.046,0.031-0.098,0.046-0.141,0.078l3.633,5.683c8.578-5.481,21.126-5.582,21.258-5.582V173.746z" style="fill: rgb(75, 75, 75);"></path>
	<path class="st0" d="M291.41,173.746v0.004c-0.031,0-0.144-0.004-0.16-0.004v6.73c0.133,0,12.614,0.067,21.262,5.582l3.633-5.683
		c-9.988-6.367-23.347-6.618-24.699-6.626C291.445,173.75,291.414,173.746,291.41,173.746z" style="fill: rgb(75, 75, 75);"></path>
</g>
</svg>
